<?xml version="1.0" encoding="UTF-8" standalone="no"?>
<svg width="23px" height="24px" viewBox="0 0 23 24" version="1.1" xmlns="http://www.w3.org/2000/svg" xmlns:xlink="http://www.w3.org/1999/xlink">
    <!-- Generator: Sketch 3.7.2 (28276) - http://www.bohemiancoding.com/sketch -->
    <title>Stroke 1310 + Stroke 1311</title>
    <desc>Created with Sketch.</desc>
    <defs></defs>
    <g id="Symbols" stroke="none" stroke-width="1" fill="none" fill-rule="evenodd">
        <g id="Header" transform="translate(-1386.000000, -68.000000)" fill="#D5DBDE">
            <g id="top-right" transform="translate(1386.000000, 59.000000)">
                <g id="Stroke-1310-+-Stroke-1311" transform="translate(0.000000, 9.000000)">
                    <path d="M19.8934083,15.4373605 L19.8934083,10.7168958 C19.8934083,7.22596102 17.7103949,4.14877157 14.4875421,2.94880501 L15.126905,3.73338048 C14.8593128,2.00005829 13.3674803,0.705099355 11.5981445,0.705099355 C9.82824465,0.705099355 8.3330839,2.00078682 8.06670589,3.73405185 L8.70626701,2.94876971 C5.48354884,4.14831487 3.30288078,7.22494219 3.30288078,10.7168958 L3.30288078,15.4373605 C3.30288078,16.3068752 2.59743405,17.0121595 1.7280818,17.0121595 L1.7280818,19.0121595 L21.4682073,19.0121595 L21.4682073,17.0121595 C20.5973242,17.0121595 19.8934083,16.3079193 19.8934083,15.4373605 L19.8934083,15.4373605 Z M17.8934083,15.4373605 C17.8934083,17.4122826 19.4925484,19.0121595 21.4682073,19.0121595 C22.8015406,19.0121595 22.8015406,17.0121595 21.4682073,17.0121595 L1.7280818,17.0121595 C0.394748471,17.0121595 0.394748471,19.0121595 1.7280818,19.0121595 C3.70190049,19.0121595 5.30288078,17.4115478 5.30288078,15.4373605 L5.30288078,10.7168958 C5.30288078,8.06799055 6.95731465,5.73380841 9.40393582,4.82313846 C9.74371288,4.69666823 9.98842464,4.39620002 10.0434969,4.03785632 C10.1605353,3.27631234 10.8196875,2.70509935 11.5981445,2.70509935 C12.3755511,2.70509935 13.032501,3.27535319 13.1503207,4.03852769 C13.2055938,4.3965578 13.4501812,4.69669603 13.7896836,4.82310316 C16.2368801,5.73426916 17.8934083,8.06932178 17.8934083,10.7168958 L17.8934083,15.4373605 L17.8934083,15.4373605 Z" id="Stroke-1310"></path>
                    <path d="M14.5908275,18.8784904 C14.5908275,20.5309864 13.250332,21.8711734 11.5981445,21.8711734 C9.94349807,21.8711734 8.60546155,20.5325204 8.60546155,18.8784904 C8.60546155,18.3262056 8.1577463,17.8784904 7.60546155,17.8784904 C7.0531768,17.8784904 6.60546155,18.3262056 6.60546155,18.8784904 C6.60546155,21.6368837 8.83872229,23.8711734 11.5981445,23.8711734 C14.3547984,23.8711734 16.5908275,21.635659 16.5908275,18.8784904 C16.5908275,18.3262056 16.1431123,17.8784904 15.5908275,17.8784904 C15.0385428,17.8784904 14.5908275,18.3262056 14.5908275,18.8784904 L14.5908275,18.8784904 Z" id="Stroke-1311"></path>
                </g>
            </g>
        </g>
    </g>
</svg>