<?xml version="1.0" encoding="UTF-8" standalone="no"?>
<svg width="25px" height="23px" viewBox="0 0 25 23" version="1.1" xmlns="http://www.w3.org/2000/svg" xmlns:xlink="http://www.w3.org/1999/xlink">
    <!-- Generator: Sketch 3.7.2 (28276) - http://www.bohemiancoding.com/sketch -->
    <title>Group</title>
    <desc>Created with Sketch.</desc>
    <defs></defs>
    <g id="Symbols" stroke="none" stroke-width="1" fill="none" fill-rule="evenodd">
        <g id="Header" transform="translate(-1443.000000, -69.000000)" fill="#333360">
            <g id="top-right" transform="translate(1387.000000, 59.000000)">
                <g id="Group-11" transform="translate(56.000000, 0.000000)">
                    <g id="Group" transform="translate(0.000000, 10.000000)">
                        <path d="M22.4235469,10.3227283 C22.4235469,14.5946075 18.0134363,18.1542028 12.4805627,18.1542028 C11.2536455,18.1542028 10.0586799,17.9779816 8.93590603,17.6387884 C8.70205587,17.5681416 8.45043404,17.5855383 8.2285312,17.687695 L1.93964572,20.5828901 L3.24993185,21.9430812 L5.71257909,17.0807348 C5.92746033,16.6564649 5.81380656,16.1395521 5.44077792,15.8445462 C3.58401253,14.3761419 2.53757839,12.4075752 2.53757839,10.3227283 C2.53757839,6.05025259 6.94727444,2.49125392 12.4805627,2.49125392 C18.0138509,2.49125392 22.4235469,6.05025259 22.4235469,10.3227283 L22.4235469,10.3227283 Z M24.4235469,10.3227283 C24.4235469,4.83995021 19.0353941,0.49125392 12.4805627,0.49125392 C5.92573124,0.49125392 0.537578391,4.83995021 0.537578391,10.3227283 C0.537578391,13.0489403 1.88372651,15.5813331 4.20016941,17.4132687 L3.92836825,16.1770801 L1.46572101,21.0394266 C1.03766783,21.8845915 1.91543933,22.7957948 2.77600713,22.3996178 L9.06489261,19.5044227 L8.35751778,19.5533293 C9.66804032,19.9492419 11.0578911,20.1542028 12.4805627,20.1542028 C19.0350031,20.1542028 24.4235469,15.8048708 24.4235469,10.3227283 L24.4235469,10.3227283 Z" id="Stroke-219"></path>
                        <circle id="Oval-50" cx="12.5" cy="10.5" r="1.5"></circle>
                        <circle id="Oval-50-Copy-2" cx="7.5" cy="10.5" r="1.5"></circle>
                        <circle id="Oval-50-Copy" cx="17.5" cy="10.5" r="1.5"></circle>
                    </g>
                </g>
            </g>
        </g>
    </g>
</svg>