<?xml version="1.0" encoding="UTF-8" standalone="no"?>
<svg width="24px" height="24px" viewBox="0 0 24 24" version="1.1" xmlns="http://www.w3.org/2000/svg" xmlns:xlink="http://www.w3.org/1999/xlink">
    <!-- Generator: Sketch 39 (31667) - http://www.bohemiancoding.com/sketch -->
    <title>Group 19</title>
    <desc>Created with Sketch.</desc>
    <defs></defs>
    <g id="Website" stroke="none" stroke-width="1" fill="none" fill-rule="evenodd">
        <g id="Results-Gallery-(Color)" transform="translate(-887.000000, -736.000000)">
            <g id="MAIN" transform="translate(327.000000, 223.000000)">
                <g id="LISTINGS" transform="translate(0.000000, 47.000000)">
                    <g id="Listing-Copy-6" transform="translate(305.000000, 451.000000)">
                        <g id="Group-19" transform="translate(255.000000, 15.000000)">
                            <circle id="Oval-235" fill="#D5DBDE" cx="11.5" cy="12.5" r="9.5"></circle>
                            <path d="M11.6847837,0 C5.30666555,0 0.11443727,5.35964444 0.0634756819,11.9192889 C0.0379948879,15.1192889 1.22560649,18.1596444 3.42074246,20.4263111 C5.59039763,22.7192889 8.50760421,23.9736889 11.6066197,24 L11.6847837,24 C18.0629019,24 23.2551302,18.6403556 23.3060918,12.0807111 C23.3315726,5.46666667 18.1665468,0.0526222222 11.6847837,0 L11.6847837,0 Z M11.9276692,18.1032192 C11.8433918,18.1690671 11.7380451,18.1905329 11.6326985,18.1905329 C11.5062824,18.1905329 11.4009358,18.1473112 11.2955891,18.0817534 C11.2321002,18.0385317 9.92608229,17.1242037 8.62034534,15.7541621 C6.787875,13.8608186 5.83975491,12.0774149 5.83975491,10.4886539 C5.83975491,8.63940237 7.31460839,7.11648932 9.1055019,7.11648932 C9.82185931,7.11648932 10.4957971,7.35551415 11.065231,7.79063216 C11.2759244,7.96525953 11.4658293,8.1601924 11.6338222,8.35599551 C11.8026578,8.1384365 11.991439,7.94263339 12.2021324,7.79063216 C12.7704426,7.35551415 13.4455041,7.11648932 14.1621424,7.11648932 C15.9530359,7.11648932 17.4278894,8.61793655 17.4278894,10.4886539 C17.4278894,14.8183683 12.1605555,17.9729739 11.9276692,18.1032192 L11.9276692,18.1032192 Z" id="Page-1" fill="#828E9B"></path>
                        </g>
                    </g>
                </g>
            </g>
        </g>
    </g>
</svg>