<?xml version="1.0" encoding="UTF-8" standalone="no"?>
<svg width="26px" height="26px" viewBox="0 0 26 26" version="1.1" xmlns="http://www.w3.org/2000/svg" xmlns:xlink="http://www.w3.org/1999/xlink">
    <!-- Generator: Sketch 39 (31667) - http://www.bohemiancoding.com/sketch -->
    <title>Shape</title>
    <desc>Created with Sketch.</desc>
    <defs></defs>
    <g id="Website" stroke="none" stroke-width="1" fill="none" fill-rule="evenodd">
        <g id="iPhone-6-Hamburger-Pullout" transform="translate(-268.000000, -14.000000)" fill="#828E9B">
            <g id="Group-8" transform="translate(251.000000, 15.000000)">
                <g id="Group-9">
                    <g id="Group-7" transform="translate(18.000000, 0.000000)">
                        <g id="Outline_Icons_1_">
                            <g id="Outline_Icons">
                                <path d="M23.5,24.5 L24.5,24.5 L24.5,23.5 C24.5,23.2074134 24.4677553,22.7302563 24.3726368,22.1270146 C24.2148058,21.1260509 23.9301967,20.1232782 23.482692,19.1772531 C23.4538923,19.1163706 23.424473,19.055878 23.3944272,18.9957864 C22.9147965,18.0365249 21.8852151,17.3185478 20.1629338,16.548489 C19.5026664,16.2532732 18.7479782,15.9528525 17.7046175,15.5624877 C17.3228726,15.419661 15.4082268,14.7155846 14.8511234,14.5066708 L15.5,15.443 L15.5,12.443 L15.0547002,13.2750503 C15.3297316,13.091696 15.6934707,12.7683724 16.05,12.293 C16.6417512,11.5039983 17,10.5486683 17,9.443 L16,9.443 L16,10.443 C17.7928257,10.443 18.1845753,6.91725364 16.4472136,6.04857281 L16,6.943 L17,6.943 C17,7.06319113 16.9974358,7.07301287 16.9902312,7.09380822 C17.0098893,7.03706696 17.0410129,6.95551674 17.0949566,6.81890511 C17.3640693,6.13738045 17.3605119,6.14652977 17.4691682,5.84249783 C17.6906573,5.22274746 17.8544358,4.65233642 17.9537967,4.09799753 C18.0743414,3.42547282 18.092896,2.80945434 17.9806473,2.24721707 C17.2962642,-1.17469844 8.81928966,-1.45726426 8.0298575,1.70046437 L9,0.943 C6.86645085,0.943 6.12722589,2.48633339 6.40316814,4.58750405 C6.46359379,5.04761704 6.56699351,5.52092885 6.70912337,6.03883993 C6.74803241,6.18062169 6.78858363,6.32128037 6.83501936,6.47709654 C6.861758,6.56681871 6.89269574,6.66898509 6.94042359,6.82651042 C6.9667534,6.91395549 7,7.04155321 7,6.943 L8,6.943 L7.5527864,6.04857281 C5.81542474,6.91725364 6.20717433,10.443 8,10.443 L8,9.443 L7,9.443 C7,10.5486683 7.35824875,11.5039983 7.95,12.293 C8.30652927,12.7683724 8.67026838,13.091696 8.9452998,13.2750503 L8.5,12.443 L8.5,15.443 L9.14887656,14.5066708 C8.59085457,14.7159291 6.67568206,15.4201611 6.29526734,15.5624775 C5.25169013,15.9528884 4.49700514,16.2532769 3.83671801,16.5484757 C2.11404513,17.3186419 1.08448368,18.0366787 0.605333081,18.9962662 C0.575527005,19.055878 0.546107721,19.1163706 0.517308022,19.1772531 C0.069803251,20.1232782 -0.21480585,21.1260509 -0.372636764,22.1270146 C-0.467755297,22.7302563 -0.5,23.2074134 -0.5,23.5 L-0.5,24.5 L0.5,24.5 L12,24.5 L23.5,24.5 Z M0.5,22.5 L1.5,23.5 C1.5,23.3056942 1.5253348,22.9307898 1.60295479,22.4385238 C1.73302141,21.6136413 1.96662788,20.7905679 2.32523621,20.0324699 C2.34784759,19.9846694 2.37091029,19.9372474 2.39442719,19.8902136 C2.60286081,19.4727871 3.32948176,18.9660271 4.65300568,18.3743109 C5.26738186,18.0996379 5.98820461,17.8127276 6.99604972,17.4356843 C7.36918161,17.2960926 9.28533474,16.5914999 9.85112344,16.3793292 L10.5,16.1360005 L10.5,15.443 L10.5,12.443 L10.5,11.9078162 L10.0547002,11.6109497 C9.95473162,11.544304 9.75597073,11.3676276 9.55,11.093 C9.20425125,10.6320017 9,10.0873317 9,9.443 L9,8.443 L8,8.443 C8.35359161,8.443 8.48689025,8.56755774 8.5356543,8.66133476 C8.49147571,8.57637594 8.44894016,8.42807631 8.43138373,8.27006847 C8.3996284,7.98427042 8.44884865,7.83660967 8.4472136,7.83742719 L9,7.56103399 L9,6.943 C9,6.74162713 8.97711891,6.65381136 8.85549478,6.24988025 C8.80628385,6.0874362 8.77695992,5.99059913 8.75171534,5.90589034 C8.7091402,5.76302846 8.67248222,5.63587413 8.6378154,5.50955074 C8.51794651,5.07275704 8.43300707,4.6839471 8.38614106,4.32708446 C8.24558718,3.2568326 8.39590654,2.943 9,2.943 L9.78077641,2.943 L9.9701425,2.18553563 C10.2385616,1.1118593 15.7507157,1.29559777 16.0194193,2.63911614 C16.0763536,2.92429159 16.0650532,3.29946711 15.9851704,3.74513684 C15.9080395,4.17545377 15.7731117,4.64538303 15.5858285,5.16942143 C15.6383417,5.02248397 15,6.6390764 15,6.943 L15,7.56103399 L15.5527864,7.83742719 C15.5511514,7.83660967 15.6003716,7.98427042 15.5686163,8.27006847 C15.5510598,8.42807631 15.5085243,8.57637594 15.4643457,8.66133476 C15.5131098,8.56755774 15.6464084,8.443 16,8.443 L15,8.443 L15,9.443 C15,10.0873317 14.7957488,10.6320017 14.45,11.093 C14.2440293,11.3676276 14.0452684,11.544304 13.9452998,11.6109497 L13.5,11.9078162 L13.5,12.443 L13.5,15.443 L13.5,16.1360005 L14.1488766,16.3793292 C14.7137329,16.5911503 16.6293224,17.2955737 17.0037803,17.4356741 C18.011408,17.8126697 18.7322275,18.0996082 19.3465864,18.3742976 C20.6701067,18.9660641 21.3969188,19.4729055 21.6055728,19.8902136 C21.6290897,19.9372474 21.6521524,19.9846694 21.6747638,20.0324699 C22.0333721,20.7905679 22.2669786,21.6136413 22.3970452,22.4385238 C22.4746652,22.9307898 22.5,23.3056942 22.5,23.5 L23.5,22.5 L12,22.5 L0.5,22.5 Z" id="Shape"></path>
                            </g>
                        </g>
                    </g>
                </g>
            </g>
        </g>
    </g>
</svg>