<?xml version="1.0" encoding="UTF-8" standalone="no"?>
<svg width="16px" height="16px" viewBox="0 0 16 16" version="1.1" xmlns="http://www.w3.org/2000/svg" xmlns:xlink="http://www.w3.org/1999/xlink">
    <!-- Generator: Sketch 3.7.2 (28276) - http://www.bohemiancoding.com/sketch -->
    <title>Page 1</title>
    <desc>Created with Sketch.</desc>
    <defs></defs>
    <g id="Symbols" stroke="none" stroke-width="1" fill="none" fill-rule="evenodd">
        <g id="Header" transform="translate(-1151.000000, -73.000000)" fill="#828E9B">
            <g id="Group-13" transform="translate(1140.000000, 62.000000)">
                <path d="M14.4284561,17.2856653 C14.4284561,13.8140549 17.2427547,11 20.7141214,11 C24.1857318,11 26.9997867,13.8140549 26.9997867,17.2856653 C26.9997867,20.7570319 24.1857318,23.5713306 20.7141214,23.5713306 C19.5645573,23.5713306 18.4874047,23.2626672 17.5609268,22.7245785 L13.2854748,26.9997867 C12.0237581,26.9997867 11,25.9760285 11,24.7143118 L15.2752081,20.4388599 C14.7371195,19.5123819 14.4284561,18.4352294 14.4284561,17.2856653 L14.4284561,17.2856653 Z M24.7143118,17.2856653 C24.7143118,15.0760154 22.9237713,13.2854748 20.7141214,13.2854748 C18.5047152,13.2854748 16.7141747,15.0760154 16.7141747,17.2856653 C16.7141747,19.4950714 18.5047152,21.285612 20.7141214,21.285612 C22.9237713,21.285612 24.7143118,19.4950714 24.7143118,17.2856653 L24.7143118,17.2856653 Z" id="Page-1"></path>
            </g>
        </g>
    </g>
</svg>